<svg width="64" height="64" viewBox="0 0 64 64" fill="none" xmlns="http://www.w3.org/2000/svg">
<rect width="64" height="64" rx="20" fill="#282828"/>
<path fillRule="evenodd" clipRule="evenodd" d="M40.5715 23.8949C40.7256 23.4986 41.276 23.4986 41.4302 23.8949V23.9169L50.7216 49.3693L45.4153 52.4297L37.9073 31.8433C37.8413 31.6231 37.8413 31.4029 37.9073 31.2047L40.5715 23.8949ZM33.4158 43.4906L36.0799 36.1807C36.234 35.7844 36.7844 35.7844 36.9386 36.1807L43.3017 53.6407L37.9954 56.7011L33.4158 44.1291C33.3497 43.9089 33.3497 43.6887 33.4158 43.4906Z" fill="#ffffff"/>
<path fillRule="evenodd" clipRule="evenodd" d="M32.3811 7.99743C32.2711 7.93138 32.1389 7.88734 32.0068 7.88734V7.86532C31.8747 7.86532 31.7426 7.90936 31.6325 7.97541L11.4204 19.6447C11.2002 19.7769 11.0461 20.0411 11.0461 20.3053V43.666C11.0461 43.9302 11.1782 44.1944 11.4204 44.3265L19.82 49.176L18.6346 52.4114L9.703 47.2548C8.40396 46.5062 7.61133 45.1411 7.61133 43.6439V20.3053C7.61133 18.8081 8.40396 17.443 9.703 16.6944L29.9152 5.02505C30.5724 4.65264 31.2731 4.47639 31.9958 4.47462C32.7187 4.47639 33.4412 4.65264 34.0765 5.02505L54.3107 16.6944C55.6097 17.443 56.4024 18.8081 56.4024 20.3053V43.6439C56.4024 45.1411 55.6097 46.5062 54.3107 47.2548L34.0985 58.9242C33.438 59.2985 32.7334 59.4746 32.0068 59.4746C31.2803 59.4746 30.5537 59.2985 29.9152 58.9242L20.7596 53.6383L23.3806 51.2316L31.6325 55.9958C31.7426 56.0619 31.8747 56.1059 32.0068 56.1059C32.1389 56.1059 32.2711 56.0619 32.3811 55.9958L52.5933 44.3265C52.8135 44.1944 52.9676 43.9302 52.9676 43.666V20.3273C52.9676 20.0631 52.8355 19.7989 52.5933 19.6668L32.3811 7.99743ZM31.9958 4.47462C31.9995 4.47461 32.0032 4.47461 32.0068 4.47461H31.9848C31.9885 4.47461 31.9922 4.47461 31.9958 4.47462Z" fill="#ffffff"/>
<path fillRule="evenodd" clipRule="evenodd" d="M25.159 18.6548H30.2891L30.3111 18.6328C30.6193 18.6328 30.8395 18.9411 30.7294 19.2493L18.6197 52.4299L13.3135 49.3694L24.3003 19.2493C24.4324 18.897 24.7847 18.6548 25.159 18.6548ZM34.1421 18.6548H39.2722V18.6328C39.5805 18.6328 39.8007 18.9411 39.6906 19.2493L26.0397 56.7013L20.7334 53.6408L33.2835 19.2493C33.4156 18.897 33.7678 18.6548 34.1421 18.6548Z" fill="white"/>
</svg>
