<svg width="64" height="64" viewBox="0 0 64 64" fill="none" xmlns="http://www.w3.org/2000/svg">
<rect width="64" height="64" rx="20" fill="black"/>
<path d="M38.5884 44.814C38.5884 46.5851 38.5822 48.3562 38.591 50.1271C38.5953 50.9891 38.8538 51.2656 39.691 51.2677C43.187 51.2767 46.6831 51.2768 50.1792 51.2677C51.0292 51.2656 51.3664 50.9344 51.3684 50.1031C51.3771 46.63 51.3772 43.157 51.3687 39.6839C51.3665 38.7995 51.0393 38.4892 50.1483 38.4882C46.6752 38.484 43.202 38.484 39.729 38.4881C38.8202 38.4891 38.5953 38.7131 38.5904 39.6387C38.5811 41.3639 38.5876 43.089 38.5884 44.814ZM25.3113 44.848C25.3113 43.1002 25.3165 41.3524 25.3091 39.6048C25.3051 38.6537 25.1338 38.4886 24.1659 38.4876C20.7394 38.4843 17.3128 38.4843 13.8863 38.4878C12.8503 38.4889 12.6305 38.7042 12.629 39.7448C12.6236 43.1713 12.6241 46.5979 12.6292 50.0244C12.6308 51.0091 12.8731 51.2656 13.8449 51.2681C17.2944 51.2771 20.7439 51.2765 24.1934 51.2679C25.0706 51.2656 25.3052 51.0237 25.309 50.1601C25.3169 48.3895 25.3114 46.6188 25.3113 44.848ZM31.9528 38.1882C33.7467 38.1882 35.5407 38.1957 37.3346 38.1848C38.1132 38.1802 38.2882 38.0128 38.2898 37.257C38.2972 33.6691 38.2976 30.0811 38.2883 26.4932C38.2864 25.767 38.0474 25.5222 37.3393 25.5205C33.7743 25.5115 30.2094 25.5111 26.6444 25.5207C25.852 25.5229 25.6155 25.7713 25.6142 26.5626C25.6083 30.1045 25.6088 33.6464 25.614 37.1885C25.6152 38.0285 25.7746 38.1827 26.6399 38.1866C28.4107 38.1945 30.1818 38.189 31.9528 38.1882ZM44.9494 25.2086C46.7195 25.2086 48.4897 25.2143 50.2598 25.206C51.1215 25.202 51.3675 24.9602 51.3694 24.0906C51.377 20.6423 51.3766 17.1941 51.3698 13.7458C51.368 12.8707 51.1286 12.6295 50.2638 12.6279C46.7006 12.6215 43.1374 12.6215 39.5743 12.6284C38.7617 12.63 38.5918 12.7994 38.5905 13.5977C38.5845 17.1149 38.5842 20.6322 38.5905 24.1494C38.5921 25.0375 38.7607 25.2034 39.6393 25.207C41.4092 25.2145 43.1794 25.2092 44.9494 25.2086ZM19.0071 25.2091C20.7773 25.2091 22.5476 25.2151 24.3178 25.2064C25.1416 25.2023 25.3066 25.0469 25.3082 24.2434C25.3157 20.7029 25.3152 17.1624 25.3087 13.6219C25.3072 12.7832 25.1452 12.6288 24.279 12.6274C20.7615 12.6218 17.244 12.6212 13.7264 12.6279C12.8524 12.6295 12.6304 12.8585 12.629 13.7451C12.6235 17.2166 12.624 20.6882 12.6287 24.1597C12.6299 25.0191 12.8118 25.2009 13.6962 25.2059C15.4665 25.2161 17.2369 25.2089 19.0071 25.2091Z" fill="white"/>
</svg>
